HIERARCHY
ROOT hip
{
  OFFSET 0 0 0
  CHANNELS 6 Xposition Yposition Zposition Zrotation Yrotation Xrotation
  JOINT abdomen
  {
    OFFSET 0 20.6881 -0.73152
    CHANNELS 3 Zrotation Xrotation Yrotation
    JOINT chest
    {
      OFFSET 0 11.7043 -0.48768
      CHANNELS 3 Zrotation Xrotation Yrotation
      JOINT neck
      {
        OFFSET 0 22.1894 -2.19456
        CHANNELS 3 Zrotation Xrotation Yrotation
        JOINT head
        {
          OFFSET -0.24384 7.07133 1.2192
          CHANNELS 3 Zrotation Xrotation Yrotation
          JOINT leftEye
          {
            OFFSET 4.14528 8.04674 8.04672
            CHANNELS 3 Zrotation Xrotation Yrotation
            End Site
            {
              OFFSET 1 0 0
            }
          }
          JOINT rightEye
          {
            OFFSET -3.6576 8.04674 8.04672
            CHANNELS 3 Zrotation Xrotation Yrotation
            End Site
            {
              OFFSET 1 0 0
            }
          }
        }
      }
      JOINT rCollar
      {
        OFFSET -2.68224 19.2634 -4.8768
        CHANNELS 3 Zrotation Xrotation Yrotation
        JOINT rShldr
        {
          OFFSET -8.77824 -1.95073 1.46304
          CHANNELS 3 Zrotation Xrotation Yrotation
          JOINT rForeArm
          {
            OFFSET -28.1742 -1.7115 0.48768
            CHANNELS 3 Zrotation Xrotation Yrotation
            JOINT rHand
            {
              OFFSET -22.5879 0.773209 7.07136
              CHANNELS 3 Zrotation Xrotation Yrotation
              JOINT rThumb1
              {
                OFFSET -1.2192 -0.487915 3.41376
                CHANNELS 3 Zrotation Xrotation Yrotation
                JOINT rThumb2
                {
                  OFFSET -3.37035 -0.52449 3.41376
                  CHANNELS 3 Zrotation Xrotation Yrotation
                  End Site
                  {
                    OFFSET -1.78271 -1.18214 1.43049
                  }
                }
              }
              JOINT rIndex1
              {
                OFFSET -7.75947 0.938293 5.60832
                CHANNELS 3 Zrotation Xrotation Yrotation
                JOINT rIndex2
                {
                  OFFSET -2.54057 -0.884171 1.56538
                  CHANNELS 3 Zrotation Xrotation Yrotation
                  End Site
                  {
                    OFFSET -1.62519 -0.234802 1.16502
                  }
                }
              }
              JOINT rMid1
              {
                OFFSET -8.24714 1.18213 3.41376
                CHANNELS 3 Zrotation Xrotation Yrotation
                JOINT rMid2
                {
                  OFFSET -3.10165 -0.590103 1.0647
                  CHANNELS 3 Zrotation Xrotation Yrotation
                  End Site
                  {
                    OFFSET -2.48547 -0.328903 0.83742
                  }
                }
              }
              JOINT rRing1
              {
                OFFSET -8.82822 0.546677 1.51678
                CHANNELS 3 Zrotation Xrotation Yrotation
                JOINT rRing2
                {
                  OFFSET -2.60934 -0.819778 -0.0198488
                  CHANNELS 3 Zrotation Xrotation Yrotation
                  End Site
                  {
                    OFFSET -2.33842 -0.294052 0.168128
                  }
                }
              }
              JOINT rPinky1
              {
                OFFSET -8.27202 -0.0477905 -0.4584
                CHANNELS 3 Zrotation Xrotation Yrotation
                JOINT rPinky2
                {
                  OFFSET -1.82734 -0.647385 -0.700984
                  CHANNELS 3 Zrotation Xrotation Yrotation
                  End Site
                  {
                    OFFSET -1.69225 -0.51767 -0.607171
                  }
                }
              }
            }
          }
        }
      }
      JOINT lCollar
      {
        OFFSET 2.68224 19.2634 -4.8768
        CHANNELS 3 Zrotation Xrotation Yrotation
        JOINT lShldr
        {
          OFFSET 8.77824 -1.95073 1.46304
          CHANNELS 3 Zrotation Xrotation Yrotation
          JOINT lForeArm
          {
            OFFSET 28.1742 -1.7115 0.48768
            CHANNELS 3 Zrotation Xrotation Yrotation
            JOINT lHand
            {
              OFFSET 22.5879 0.773209 7.07136
              CHANNELS 3 Zrotation Xrotation Yrotation
              JOINT lThumb1
              {
                OFFSET 1.2192 -0.487915 3.41376
                CHANNELS 3 Zrotation Xrotation Yrotation
                JOINT lThumb2
                {
                  OFFSET 3.37035 -0.52449 3.41376
                  CHANNELS 3 Zrotation Xrotation Yrotation
                  End Site
                  {
                    OFFSET 1.78271 -1.18214 1.43049
                  }
                }
              }
              JOINT lIndex1
              {
                OFFSET 7.75947 0.938293 5.60832
                CHANNELS 3 Zrotation Xrotation Yrotation
                JOINT lIndex2
                {
                  OFFSET 2.54057 -0.884171 1.56538
                  CHANNELS 3 Zrotation Xrotation Yrotation
                  End Site
                  {
                    OFFSET 1.62519 -0.234802 1.16502
                  }
                }
              }
              JOINT lMid1
              {
                OFFSET 8.24714 1.18213 3.41376
                CHANNELS 3 Zrotation Xrotation Yrotation
                JOINT lMid2
                {
                  OFFSET 3.10165 -0.590103 1.0647
                  CHANNELS 3 Zrotation Xrotation Yrotation
                  End Site
                  {
                    OFFSET 2.48547 -0.328903 0.83742
                  }
                }
              }
              JOINT lRing1
              {
                OFFSET 8.82822 0.546677 1.51678
                CHANNELS 3 Zrotation Xrotation Yrotation
                JOINT lRing2
                {
                  OFFSET 2.60934 -0.819778 -0.0198488
                  CHANNELS 3 Zrotation Xrotation Yrotation
                  End Site
                  {
                    OFFSET 2.33842 -0.294052 0.168128
                  }
                }
              }
              JOINT lPinky1
              {
                OFFSET 8.27202 -0.0477905 -0.4584
                CHANNELS 3 Zrotation Xrotation Yrotation
                JOINT lPinky2
                {
                  OFFSET 1.82734 -0.647385 -0.700984
                  CHANNELS 3 Zrotation Xrotation Yrotation
                  End Site
                  {
                    OFFSET 1.69225 -0.51767 -0.607171
                  }
                }
              }
            }
          }
        }
      }
    }
  }
  JOINT rButtock
  {
    OFFSET -8.77824 4.35084 1.2192
    CHANNELS 3 Zrotation Xrotation Yrotation
    JOINT rThigh
    {
      OFFSET 0 -1.70687 -2.19456
      CHANNELS 3 Zrotation Xrotation Yrotation
      JOINT rShin
      {
        OFFSET 0 -36.8199 0.73152
        CHANNELS 3 Zrotation Xrotation Yrotation
        JOINT rFoot
        {
          OFFSET 0.73152 -45.1104 -5.12064
          CHANNELS 3 Zrotation Xrotation Yrotation
          End Site
          {
            OFFSET -1.1221 -3.69964 12.103
          }
        }
      }
    }
  }
  JOINT lButtock
  {
    OFFSET 8.77824 4.35084 1.2192
    CHANNELS 3 Zrotation Xrotation Yrotation
    JOINT lThigh
    {
      OFFSET 0 -1.70687 -2.19456
      CHANNELS 3 Zrotation Xrotation Yrotation
      JOINT lShin
      {
        OFFSET 0 -36.8199 0.73152
        CHANNELS 3 Zrotation Xrotation Yrotation
        JOINT lFoot
        {
          OFFSET -0.73152 -45.1104 -5.12064
          CHANNELS 3 Zrotation Xrotation Yrotation
          End Site
          {
            OFFSET 1.1221 -3.69964 12.103
          }
        }
      }
    }
  }
}
MOTION
Frames:	6
Frame Time:	0.00833333
36.6239 85.0697 -83.7473 0.0 0.0 0.0 0.202514 -0.000639073 0.00577304 0.0558295 -0.000931036 0.00967165 4.39765e-15 7.95139e-16 -2.71843e-23 1.32068e-14 9.54166e-15 -1.70831e-17 -0.0 0.0 0.0 -0.0 0.0 0.0 2.23507e-15 -1.16475e-18 9.93923e-17 4.76942e-14 -2.48481e-17 1.19271e-15 7.97425e-13 -2.39734e-13 -6.36111e-15 9.12148e-12 2.30044e-13 1.90833e-14 2.15158e-11 -2.34899e-14 3.81667e-14 3.71501e-11 -4.13472e-14 5.64548e-14 2.152e-11 -2.38542e-14 2.8625e-14 7.73091 5.47488 0.417314 2.15157e-11 -2.42517e-14 4.13472e-14 2.90554 0.965183 0.102902 2.15248e-11 -2.3556e-14 3.26007e-14 10.2786 0.731801 0.0259123 2.15121e-11 -2.18663e-14 3.49861e-14 2.22167 -0.733487 -0.20892 2.13834e-15 -1.55301e-18 -9.93923e-17 4.41668e-14 -3.10601e-16 -7.95139e-16 7.93648e-13 2.37945e-13 -6.36111e-15 9.11836e-12 -2.44903e-13 1.90833e-14 2.15048e-11 -1.46047e-14 2.22639e-14 3.71485e-11 -2.54444e-14 5.725e-14 2.15005e-11 -1.47101e-14 3.81667e-14 -7.73091 5.47488 -0.417314 2.15044e-11 -1.49089e-14 2.22639e-14 -2.90554 0.965183 -0.102902 2.15011e-11 -1.48095e-14 3.26007e-14 -10.2786 0.731801 -0.0259123 2.15081e-11 -1.23246e-14 3.18055e-14 -2.22167 -0.733487 0.20892 -2.03217e-16 0.0 -3.88251e-19 0.677485 -3.60113 -0.0536493 -0.00454017 0.970124 -0.0387446 -0.524689 2.63023 0.113976 2.03217e-16 0.0 3.88251e-19 -0.369391 -2.81566 0.0342633 0.00682579 -0.452698 0.059932 0.522488 3.26753 -0.126813
36.7262 83.0536 -85.528 -0.1448 3.2012 6.7087 0.0061185 -1.15496 -0.519262 0.731481 0.879594 -0.15909 -0.981061 2.04757 -0.391983 1.58196 -8.65991 -0.203812 -0.0 0.0 0.0 -0.0 0.0 0.0 -1.06462e-15 -8.77273e-15 8.03408e-15 23.2175 10.4241 -1.70122 -5.92174 -3.14657 8.70039 0.00185657 0.95778 0.13454 -5.6394e-11 8.81193e-13 7.85416e-11 -9.76513e-11 1.17203e-12 1.36618e-10 -5.6389e-11 8.80554e-13 7.85321e-11 7.73091 5.47488 0.417314 -5.63938e-11 8.79266e-13 7.85466e-11 2.90554 0.965183 0.102902 -5.63849e-11 8.7935e-13 7.85374e-11 10.2786 0.731801 0.0259123 -5.63978e-11 8.80889e-13 7.85418e-11 2.22167 -0.733487 -0.20892 -1.1912e-15 -8.77246e-15 7.83763e-15 -24.1695 11.2392 1.72106 6.57574 -3.67676 -9.41259 -0.03192 -3.96504 0.552441 1.33272e-10 5.98974e-11 -7.51696e-11 2.31165e-10 1.0482e-10 -1.29325e-10 1.3327e-10 5.98977e-11 -7.51536e-11 -7.73091 5.47488 -0.417314 1.33274e-10 5.98986e-11 -7.51674e-11 -2.90554 0.965183 -0.102902 1.33269e-10 5.98991e-11 -7.5162e-11 -10.2786 0.731801 -0.0259123 1.33276e-10 5.99019e-11 -7.51653e-11 -2.22167 -0.733487 0.20892 -2.03217e-16 0.0 -3.88251e-19 0.837832 -10.0994 -0.219667 0.0203174 11.1581 0.134952 -0.894175 -2.02824 -2.70666 2.03217e-16 0.0 3.88251e-19 -0.774179 -9.63254 0.622164 -0.00793779 9.93939 -0.0979605 0.56375 -2.1752 0.254936
36.7277 83.0498 -85.5433 -0.1616 3.2789 6.7718 -0.224028 -2.37529 -1.07948 1.45429 1.81095 -0.339002 -1.99102 4.21183 -0.807067 3.18544 -17.8149 -0.4326 -0.0 0.0 0.0 -0.0 0.0 0.0 -4.7249e-15 -1.61032e-14 1.72166e-14 48.4755 21.4136 -3.69391 -11.1534 -6.22996 17.9791 -0.00107189 1.96316 0.275893 -1.3599e-10 2.75244e-12 1.61073e-10 -2.35423e-10 4.07906e-12 2.80187e-10 -1.35985e-10 2.75148e-12 1.61063e-10 7.73091 5.47488 0.417314 -1.3599e-10 2.74925e-12 1.6108e-10 2.90554 0.965183 0.102902 -1.35981e-10 2.74863e-12 1.6107e-10 10.2786 0.731801 0.0259123 -1.35994e-10 2.74999e-12 1.61076e-10 2.22167 -0.733487 -0.20892 -4.88542e-15 -1.61021e-14 1.7024e-14 -50.5154 23.0882 3.77417 12.2306 -7.23301 -19.485 0.0182248 -8.15043 1.14461 2.50269e-10 1.30817e-10 -1.53692e-10 4.34315e-10 2.28829e-10 -2.64459e-10 2.50268e-10 1.30818e-10 -1.53675e-10 -7.73091 5.47488 -0.417314 2.50272e-10 1.3082e-10 -1.53687e-10 -2.90554 0.965183 -0.102902 2.50266e-10 1.30821e-10 -1.53687e-10 -10.2786 0.731801 -0.0259123 2.50272e-10 1.30824e-10 -1.53693e-10 -2.22167 -0.733487 0.20892 -2.03217e-16 0.0 -3.88251e-19 0.963272 -16.9681 -0.409565 -0.0251528 21.9304 0.337753 -1.78545 -6.91883 -5.7275 2.03217e-16 0.0 3.88251e-19 -1.04415 -16.8354 1.27998 0.0423108 20.927 -0.280347 0.686543 -7.92696 0.663294
36.7177 83.047 -85.5571 -0.1414 3.2938 6.8283 -0.450228 -3.46245 -1.57188 2.09836 2.64055 -0.497084 -2.85873 6.14157 -1.18198 4.54339 -25.9783 -0.672408 -0.0 0.0 0.0 -0.0 0.0 0.0 -7.664e-15 -2.63159e-14 2.39035e-14 71.7722 31.1525 -5.86796 -14.982 -8.57069 26.3784 -0.00793876 2.87328 0.404071 -2.12214e-10 2.69056e-12 2.35548e-10 -3.67254e-10 3.5988e-12 4.09743e-10 -2.12207e-10 2.68937e-12 2.35539e-10 7.73091 5.47488 0.417314 -2.12213e-10 2.6863e-12 2.35557e-10 2.90554 0.965183 0.102902 -2.12204e-10 2.68516e-12 2.35547e-10 10.2786 0.731801 0.0259123 -2.12218e-10 2.6864e-12 2.35555e-10 2.22167 -0.733487 -0.20892 -7.85027e-15 -2.63143e-14 2.37117e-14 -74.8752 33.5833 6.0823 16.2221 -9.84115 -28.6385 0.13787 -11.8906 1.68962 3.56808e-10 1.79721e-10 -2.25553e-10 6.19197e-10 3.1451e-10 -3.88091e-10 3.56808e-10 1.79723e-10 -2.25537e-10 -7.73091 5.47488 -0.417314 3.56812e-10 1.79726e-10 -2.25547e-10 -2.90554 0.965183 -0.102902 3.56805e-10 1.79727e-10 -2.25551e-10 -10.2786 0.731801 -0.0259123 3.56811e-10 1.7973e-10 -2.25559e-10 -2.22167 -0.733487 0.20892 -2.03217e-16 0.0 -3.88251e-19 1.03634 -23.095 -0.588902 -0.141576 31.5328 0.556916 -3.02451 -11.2303 -8.50665 2.03217e-16 0.0 3.88251e-19 -1.13103 -23.2562 1.92848 0.156024 30.7227 -0.476161 0.867725 -13.0587 1.04448
36.7106 83.0434 -85.5732 -0.1163 3.3507 6.8969 -0.620779 -4.21782 -1.89226 2.53438 3.21589 -0.600124 -3.43025 7.48613 -1.45077 5.43135 -31.6642 -0.884327 -0.0 0.0 0.0 -0.0 0.0 0.0 -8.80017e-15 -4.37342e-14 2.43511e-14 88.6006 37.8756 -7.78589 -17.2302 -9.8823 32.3152 -0.0154405 3.54531 0.498904 -2.80003e-10 -2.20412e-12 2.89885e-10 -4.84236e-10 -5.34969e-12 5.04267e-10 -2.79997e-10 -2.20532e-12 2.89876e-10 7.73091 5.47488 0.417314 -2.80003e-10 -2.20899e-12 2.89895e-10 2.90554 0.965183 0.102902 -2.79994e-10 -2.21019e-12 2.89885e-10 10.2786 0.731801 0.0259123 -2.80007e-10 -2.2089e-12 2.89895e-10 2.22167 -0.733487 -0.20892 -8.99165e-15 -4.37326e-14 2.41523e-14 -92.5091 40.8179 8.17777 18.4824 -11.215 -35.1118 0.265844 -14.5221 2.08627 4.37204e-10 1.73585e-10 -2.80763e-10 7.58409e-10 3.04373e-10 -4.82968e-10 4.37205e-10 1.73586e-10 -2.80748e-10 -7.73091 5.47488 -0.417314 4.37209e-10 1.7359e-10 -2.80757e-10 -2.90554 0.965183 -0.102902 4.37201e-10 1.73591e-10 -2.80763e-10 -10.2786 0.731801 -0.0259123 4.37208e-10 1.73595e-10 -2.80773e-10 -2.22167 -0.733487 0.20892 -2.03217e-16 0.0 -3.88251e-19 1.07208 -27.3682 -0.707058 -0.278552 38.2116 0.747327 -4.14702 -14.2083 -10.5153 2.03217e-16 0.0 3.88251e-19 -1.08963 -27.7314 2.4355 0.285747 37.5399 -0.645821 1.03827 -16.6423 1.32946
36.6927 83.0412 -85.5567 -0.1125 3.3083 6.9477 -0.69383 -4.50654 -1.96961 2.67402 3.43394 -0.625622 -3.61479 8.01148 -1.56674 5.74386 -33.884 -1.00925 -0.0 0.0 0.0 -0.0 0.0 0.0 -7.66545e-15 -7.76138e-14 1.46662e-14 95.4102 40.4743 -8.70811 -18.0323 -10.3176 34.6722 -0.0197666 3.88915 0.547486 -3.41679e-10 -2.41557e-11 3.2575e-10 -5.90118e-10 -4.40855e-11 5.66588e-10 -3.41672e-10 -2.41566e-11 3.2574e-10 7.73091 5.47488 0.417314 -3.4168e-10 -2.41604e-11 3.25759e-10 2.90554 0.965183 0.102902 -3.4167e-10 -2.41611e-11 3.25752e-10 10.2786 0.731801 0.0259123 -3.41682e-10 -2.41594e-11 3.25762e-10 2.22167 -0.733487 -0.20892 -7.82784e-15 -7.76133e-14 1.44495e-14 -99.5778 43.5968 9.17065 19.2616 -11.6314 -37.6523 0.328913 -15.6132 2.25455 4.97469e-10 7.39039e-11 -3.17766e-10 8.62001e-10 1.31424e-10 -5.46214e-10 4.97471e-10 7.39045e-11 -3.17751e-10 -7.73091 5.47488 -0.417314 4.97475e-10 7.39071e-11 -3.17763e-10 -2.90554 0.965183 -0.102902 4.97466e-10 7.39087e-11 -3.17767e-10 -10.2786 0.731801 -0.0259123 4.97474e-10 7.39116e-11 -3.17777e-10 -2.22167 -0.733487 0.20892 -2.03217e-16 0.0 -3.88251e-19 1.10106 -29.0484 -0.717627 -0.347683 40.7994 0.833853 -4.65011 -15.3937 -11.3183 2.03217e-16 0.0 3.88251e-19 -1.03904 -29.4897 2.66032 0.350658 40.1883 -0.722848 1.11802 -18.0583 1.45271
